<?xml version="1.0" encoding="UTF-8" standalone="no"?>
<!-- Created with Inkscape (http://www.inkscape.org/) -->

<svg
   xmlns:dc="http://purl.org/dc/elements/1.1/"
   xmlns:cc="http://creativecommons.org/ns#"
   xmlns:rdf="http://www.w3.org/1999/02/22-rdf-syntax-ns#"
   xmlns:svg="http://www.w3.org/2000/svg"
   xmlns="http://www.w3.org/2000/svg"
   version="1.1"
   width="62.848919"
   height="42.153378"
   id="svg2">
  <defs
     id="defs4">
    <clipPath
       id="clipPath3136">
      <path
         d="m 1853.35,917.191 c 0,13.532 -5.38,26.508 -14.95,36.079 -9.56,9.566 -22.54,14.945 -36.07,14.945 -13.54,0 -26.51,-5.379 -36.08,-14.945 -9.57,-9.571 -14.95,-22.547 -14.95,-36.079 0,-13.531 5.38,-26.507 14.95,-36.074 9.57,-9.57 22.54,-14.945 36.08,-14.945 13.53,0 26.51,5.375 36.07,14.945 9.57,9.567 14.95,22.543 14.95,36.074 z"
         id="path3138" />
    </clipPath>
    <clipPath
       id="clipPath3258">
      <path
         d="m 3118.15,917.191 c 0,13.532 -5.38,26.508 -14.95,36.079 -9.56,9.566 -22.54,14.945 -36.08,14.945 -13.53,0 -26.5,-5.379 -36.07,-14.945 -9.57,-9.571 -14.94,-22.547 -14.94,-36.079 0,-13.531 5.37,-26.507 14.94,-36.074 9.57,-9.57 22.54,-14.945 36.07,-14.945 13.54,0 26.52,5.375 36.08,14.945 9.57,9.567 14.95,22.543 14.95,36.074 z"
         id="path3260" />
    </clipPath>
    <clipPath
       id="clipPath3294">
      <path
         d="m 3118.15,357.863 c 0,13.535 -5.38,26.512 -14.95,36.078 -9.56,9.567 -22.54,14.946 -36.08,14.946 -13.53,0 -26.5,-5.379 -36.07,-14.946 -9.57,-9.566 -14.94,-22.543 -14.94,-36.078 0,-13.531 5.37,-26.508 14.94,-36.074 9.57,-9.57 22.54,-14.945 36.07,-14.945 13.54,0 26.52,5.375 36.08,14.945 9.57,9.566 14.95,22.543 14.95,36.074 z"
         id="path3296" />
    </clipPath>
  </defs>
  <metadata
     id="metadata7">
    <rdf:RDF>
      <cc:Work
         rdf:about="">
        <dc:format>image/svg+xml</dc:format>
        <dc:type
           rdf:resource="http://purl.org/dc/dcmitype/StillImage" />
        <dc:title></dc:title>
      </cc:Work>
    </rdf:RDF>
  </metadata>
  <g
     transform="translate(-246.6981,-678.26663)"
     id="layer1">
    <text
       x="245.83029"
       y="702.5802"
       id="text2985"
       xml:space="preserve"
       style="font-size:12.97284698px;font-style:normal;font-variant:normal;font-weight:normal;font-stretch:normal;text-align:start;line-height:100%;letter-spacing:0px;word-spacing:0px;writing-mode:lr-tb;text-anchor:start;fill:#000000;fill-opacity:1;stroke:none;font-family:Liberation Sans;-inkscape-font-specification:Liberation Sans"><tspan
         x="245.83029"
         y="702.5802"
         id="tspan2987"
         style="font-style:normal;font-variant:normal;font-weight:normal;font-stretch:normal;fill:#d51800;fill-opacity:1;font-family:saxMono;-inkscape-font-specification:saxMono"><tspan
           id="tspan3175"
           style="font-weight:bold;fill:#d51800;fill-opacity:1;stroke:none">l</tspan><tspan
           id="tspan4043"
           style="fill:#000000;fill-opacity:1;stroke:#000000;stroke-width:0.5;stroke-miterlimit:4;stroke-opacity:1;stroke-dasharray:none">pair</tspan><tspan
           id="tspan3177"
           style="fill:#d51800;fill-opacity:1">++</tspan></tspan></text>
    <path
       d="m 261.75531,678.41678 c -0.005,0.005 -0.0108,0.0101 -0.0156,0.0156 -0.15178,0.0578 0.0314,0.36091 0.0314,0.36091 8.00494,1.65175 16.13178,3.28497 22.98851,4.69185 l 0.0156,0 c 0.75204,-0.23697 1.45758,0.40702 1.28674,1.17688 -0.23004,1.03525 0.76182,1.95062 1.77318,1.63196 0.75229,-0.23672 1.47333,0.40703 1.30242,1.1769 -0.22999,1.03541 0.76166,1.95029 1.77319,1.63194 0.75232,-0.23698 1.45779,0.42273 1.28673,1.19259 -0.22973,1.0352 0.76162,1.93489 1.77318,1.61626 0.75204,-0.23695 1.45764,0.42272 1.28673,1.19258 -0.21208,0.95439 0.61477,1.78792 1.53781,1.66334 0,4.71391 0.0156,5.18771 0.0156,9.50927 0.0949,0.72742 -0.58164,1.32549 -1.30242,1.09844 -1.01152,-0.31864 -2.00328,0.59675 -1.77319,1.63196 0.17086,0.76986 -0.55009,1.41381 -1.30242,1.17688 -1.01132,-0.31836 -2.0029,0.59655 -1.77318,1.63196 0.17105,0.76983 -0.5347,1.41379 -1.28674,1.17689 -1.0115,-0.31864 -2.00298,0.59675 -1.77318,1.63195 0.17106,0.76987 -0.5501,1.41388 -1.30242,1.1769 -0.95345,-0.30007 -1.89283,0.4999 -1.80457,1.45933 -7.63474,1.54811 -16.36338,3.31061 -22.72183,4.62911 -0.19719,0.041 -0.11873,0.41768 0.0785,0.37661 7.99546,-1.63554 16.12247,-3.32078 22.86306,-4.67618 7.05712,1.65987 13.12628,3.08426 19.75606,4.67618 0.17851,0.0208 0.26006,-0.29184 0.0942,-0.36091 -6.58889,-1.56823 -13.94764,-3.29661 -19.67761,-4.6605 -0.0833,-0.72051 0.58677,-1.30796 1.30243,-1.08273 1.01155,0.31863 2.00319,-0.58106 1.77317,-1.61627 -0.1709,-0.76986 0.55018,-1.42955 1.30243,-1.19258 1.01135,0.31859 2.0032,-0.58103 1.77318,-1.61626 -0.17086,-0.77016 0.53466,-1.42934 1.28673,-1.19259 1.01156,0.31857 2.00292,-0.59675 1.77319,-1.63194 -0.17112,-0.76987 0.55017,-1.41387 1.30242,-1.1769 0.922,0.29043 1.82567,-0.44894 1.80457,-1.36519 4.04227,0.47057 8.63679,0.91539 12.01995,1.33381 0.1976,0.0255 0.24484,-0.35271 0.0471,-0.37661 -4.28723,-0.47486 -7.98225,-0.86747 -12.09846,-1.3495 0,0 0,-4.36829 0,-9.2582 l 12.0986,-1.34945 -0.0471,-0.37661 c -4.14537,0.46477 -8.31244,0.93761 -12.36516,1.39653 -0.72794,0.18184 -1.39021,-0.46016 -1.22397,-1.20828 0.22981,-1.0352 -0.76182,-1.95061 -1.77318,-1.63195 -0.75233,0.23697 -1.47328,-0.40702 -1.30243,-1.17689 0.23002,-1.0352 -0.76161,-1.95059 -1.77318,-1.63196 -0.75236,0.23678 -1.45781,-0.40672 -1.28673,-1.17688 0.22981,-1.03521 -0.7617,-1.95024 -1.77318,-1.63196 -0.75203,0.23695 -1.4578,-0.42275 -1.28674,-1.19259 0.14056,-0.63334 -0.18835,-1.20499 -0.69044,-1.49072 6.7882,-1.60615 18.81456,-4.45649 18.81456,-4.45649 0,0 0.18768,-0.13073 0.16055,-0.23464 -0.0271,-0.10391 -0.25475,-0.12623 -0.25475,-0.12623 l -19.709,4.67618 -22.91013,-4.67618 c 0,0 -0.0412,-0.0141 -0.0628,-0.0156 -0.005,-2.2e-4 -0.0105,-2.2e-4 -0.0156,0 -0.005,-2.2e-4 -0.0104,-2.2e-4 -0.0156,0 z"
       id="path3016"
       style="font-size:medium;font-style:normal;font-variant:normal;font-weight:normal;font-stretch:normal;text-indent:0;text-align:start;text-decoration:none;line-height:normal;letter-spacing:normal;word-spacing:normal;text-transform:none;direction:ltr;block-progression:tb;writing-mode:lr-tb;text-anchor:start;baseline-shift:baseline;color:#000000;fill:#808080;fill-opacity:1;stroke:#808080;stroke-width:0.2;stroke-miterlimit:4;stroke-opacity:1;stroke-dasharray:none;marker:none;visibility:visible;display:inline;overflow:visible;enable-background:accumulate;font-family:Sans;-inkscape-font-specification:Sans" />
  </g>
</svg>
